<?xml version="1.0" standalone="no"?><!DOCTYPE svg PUBLIC "-//W3C//DTD SVG 1.1//EN" "http://www.w3.org/Graphics/SVG/1.1/DTD/svg11.dtd"><svg t="1557372494484" class="icon" style="" viewBox="0 0 1024 1024" version="1.1" xmlns="http://www.w3.org/2000/svg" p-id="4141" xmlns:xlink="http://www.w3.org/1999/xlink" width="200" height="200"><defs><style type="text/css"></style></defs><path d="M699.392 651.776h91.306667c14.250667 0 25.941333-10.410667 25.941333-23.125333V344.32c0-12.714667-11.690667-23.125333-25.941333-23.125333H233.386667c-14.250667 0-25.941333 10.410667-25.941334 23.125333v284.330667c0 12.714667 11.690667 23.125333 25.941334 23.125333H296.448l85.333333-105.642667 145.066667-17.066666 128 122.709333h44.544z" fill="#64EDAC" p-id="4142"></path><path d="M470.869333 886.869333c-110.677333 0-200.789333-90.026667-200.789333-200.789333 0-110.677333 90.026667-200.789333 200.789333-200.789333S671.658667 575.402667 671.658667 686.08s-90.026667 200.789333-200.789334 200.789333z m0-333.312c-73.045333 0-132.522667 59.392-132.522666 132.522667 0 73.045333 59.392 132.522667 132.522666 132.522667s132.522667-59.392 132.522667-132.522667c0-73.045333-59.392-132.522667-132.522667-132.522667z" fill="#333C4F" p-id="4143"></path><path d="M851.370667 226.048h-177.493334l-11.690666-61.184a34.193067 34.193067 0 0 0-33.536-27.733333H395.349333c-16.384 0-30.464 11.605333-33.536 27.733333l-11.776 61.184h-177.493333c-36.266667 0-65.792 29.525333-65.792 65.792v389.461333c0 36.266667 29.525333 65.792 65.792 65.792h24.917333c18.858667 0 34.133333-15.274667 34.133334-34.133333s-15.274667-34.133333-34.133334-34.133333h-22.442666V419.157333H843.946667c1.706667 0 3.328-0.256 4.949333-0.512v260.096H740.181333c-18.858667 0-34.133333 15.274667-34.133333 34.133334s15.274667 34.133333 34.133333 34.133333h111.189334c36.266667 0 65.792-29.525333 65.792-65.792V291.84c0-36.266667-29.525333-65.792-65.792-65.792z m-427.776-20.650667h176.896l3.925333 20.565334H419.584l4.010667-20.565334zM843.946667 349.525333H175.104v-55.296h673.792v55.808c-1.621333-0.170667-3.242667-0.512-4.949333-0.512z" fill="#333C4F" p-id="4144"></path><path d="M537.514667 720.213333c-18.858667 0-34.133333-15.274667-34.133334-34.133333 0-17.92-14.592-32.512-32.512-32.512-18.858667 0-34.133333-15.274667-34.133333-34.133333s15.274667-34.133333 34.133333-34.133334c55.552 0 100.778667 45.226667 100.778667 100.778667 0 18.858667-15.274667 34.133333-34.133333 34.133333z" fill="#333C4F" p-id="4145"></path></svg>