<?xml version="1.0" standalone="no"?><!DOCTYPE svg PUBLIC "-//W3C//DTD SVG 1.1//EN" "http://www.w3.org/Graphics/SVG/1.1/DTD/svg11.dtd"><svg t="1557372461556" class="icon" style="" viewBox="0 0 1024 1024" version="1.1" xmlns="http://www.w3.org/2000/svg" p-id="3550" xmlns:xlink="http://www.w3.org/1999/xlink" width="200" height="200"><defs><style type="text/css"></style></defs><path d="M512 690.944c-134.485333 0-243.882667-109.397333-243.882667-243.882667S377.514667 203.093333 512 203.093333s243.882667 109.397333 243.882667 243.882667S646.485333 690.944 512 690.944z" fill="#cdcdcd" p-id="3551"></path><path d="M500.906667 364.202667m-34.133334 0a34.133333 34.133333 0 1 0 68.266667 0 34.133333 34.133333 0 1 0-68.266667 0Z" fill="#cdcdcd" p-id="3552"></path><path d="M866.816 446.976c0-195.669333-159.146667-354.816-354.816-354.816S157.184 251.306667 157.184 446.976c0 156.16 101.376 288.938667 241.749333 336.298667l-36.096 74.666666c-0.768 1.706667-1.450667 3.413333-2.048 5.12h-19.541333c-18.944 0-34.389333 15.445333-34.389333 34.389334s15.445333 34.389333 34.389333 34.389333h341.589333c18.944 0 34.389333-15.445333 34.389334-34.389333s-15.445333-34.389333-34.389334-34.389334h-19.541333a64 64 0 0 0-2.048-5.12l-36.096-74.666666c140.288-47.36 241.664-180.138667 241.664-336.298667zM512 160.426667c129.194667 0 238.677333 86.016 274.346667 203.776H658.176C646.997333 293.461333 585.813333 239.104 512 239.104s-134.997333 54.357333-146.176 125.098667H237.653333C273.322667 246.442667 382.805333 160.426667 512 160.426667z m79.872 226.816c0 44.032-35.84 79.872-79.872 79.872s-79.872-35.84-79.872-79.872 35.84-79.872 79.872-79.872 79.872 35.84 79.872 79.872zM512 733.525333c-28.330667 0-55.722667-4.181333-81.664-11.946666 7.765333-19.2 29.354667-55.381333 81.664-55.381334 52.394667 0 73.984 36.352 81.664 55.381334-25.856 7.765333-53.248 11.946667-81.664 11.946666z m75.776 129.536H436.224l30.976-64.170666c14.677333 1.877333 29.610667 2.901333 44.8 2.901333s30.122667-1.109333 44.8-2.901333l30.976 64.170666z m68.522667-168.618666c-17.834667-41.984-61.866667-96.426667-144.298667-96.426667-82.346667 0-126.464 54.528-144.298667 96.426667-84.992-49.749333-142.336-141.994667-142.336-247.466667 0-5.034667 0.170667-10.069333 0.426667-15.104 1.706667 0.256 3.328 0.512 5.12 0.512H370.346667c0.170667 0 0.341333-0.085333 0.512-0.085333 19.114667 59.648 75.093333 103.082667 141.056 103.082666s121.941333-43.349333 141.056-102.997333h137.301333c2.730667 0 5.290667-0.426667 7.765333-1.024 0.256 5.12 0.426667 10.325333 0.426667 15.530667 0.085333 105.557333-57.173333 197.802667-142.165333 247.552z" fill="#cdcdcd" p-id="3553"></path></svg>